<?xml version="1.0" encoding="UTF-8" standalone="no"?>
<!DOCTYPE svg PUBLIC "-//W3C//DTD SVG 20010904//EN"
			"http://www.w3.org/TR/2001/REC-SVG-20010904/DTD/svg10.dtd">

<svg xmlns="http://www.w3.org/2000/svg" viewBox="0 0 108 108" preserveAspectRatio="none">
	<path fill="red" stroke="red" stroke-width="1"
		 d="M 36.5,37.8
				C 36.5,37.8 57.0,36.0 57.0,36.0
					66.5,35.4 67.5,47.0 79.8,50.0
					81.1,50.4 84.1,52.0 85.9,53.0
					90.4,54.4 90.2,64.9 82.2,66.9
					82.9,61.2 78.0,56.4 72.7,56.7
					66.9,56.3 62.4,62.3 63.5,67.9
					63.5,67.9 45.2,67.9 45.2,67.9
					46.2,62.5 42.4,56.5 35.9,56.7
					30.1,56.3 26.0,62.2 26.4,66.6
					21.7,64.7 18.1,57.3 24.1,52.5
					24.4,51.3 20.1,51.1 19.2,49.8
					18.9,49.1 19.3,47.9 20.1,47.8
					22.6,47.7 24.6,48.6 28.1,48.6
					30.8,44.7 33.3,37.6 36.5,37.8 Z
				M 37.7,41.0
				C 37.7,41.0 31.6,50.3 31.6,50.3
					33.5,50.7 39.6,53.2 42.5,53.0
					42.5,53.0 44.9,40.3 44.9,40.3
					44.9,40.3 37.7,40.9 37.7,41.0 Z
				M 47.8,40.0
				C 47.8,40.0 45.3,52.9 45.3,52.9
					48.8,52.2 68.9,54.4 69.3,50.3
					65.4,46.5 61.0,38.2 57.0,39.1
					57.0,39.1 47.8,40.0 47.8,40.0 Z
				M 48.5,59.9
				C 50.9,60.0 51.3,56.1 48.5,56.0
					46.1,56.0 45.7,59.8 48.5,59.9 Z" />
	<circle style="fill: red;" r="7" cx="73" cy="66"></circle>
	<circle style="fill: red;" r="7" cx="36" cy="66"></circle>
</svg>
