<?xml version="1.0" encoding="UTF-8" standalone="no"?>
<!DOCTYPE svg PUBLIC "-//W3C//DTD SVG 20010904//EN"
			"http://www.w3.org/TR/2001/REC-SVG-20010904/DTD/svg10.dtd">

<svg xmlns="http://www.w3.org/2000/svg" viewBox="0 0 200 117" preserveAspectRatio="none">
	<path fill="red" stroke="red" stroke-width="1"
		d="M 52.59,13.81
		C 52.59,13.81 108.80,9.09 108.80,9.09
		 134.70,7.15 137.23,39.08 170.91,47.54
		 174.57,48.62 182.77,53.09 187.72,55.58
		 199.75,59.46 199.41,88.44 177.46,93.89
		 179.37,78.29 166.08,65.05 151.62,65.84
		 135.82,64.88 123.50,81.31 126.43,96.71
		 126.43,96.71 76.49,96.60 76.49,96.60
		  79.04,81.77 68.71,65.45 50.94,65.76
		  35.21,64.82 23.85,80.97 24.93,93.22
		  12.10,87.87 2.39,67.53 18.82,54.39
		  19.63,51.05 7.94,50.57 5.36,46.84
		   4.45,44.89 5.52,41.65 7.92,41.28
		  14.60,41.23 20.26,43.56 29.72,43.64
		  37.10,32.79 43.85,13.20 52.59,13.81 Z
		M 55.99,22.61
		C 55.99,22.72 39.30,48.28 39.30,48.28
		  44.35,49.31 61.04,56.32 69.16,55.58
		  69.16,55.58 75.64,20.78 75.64,20.78
		  75.64,20.78 55.99,22.49 55.99,22.61 Z
		M 83.44,19.91
		C 83.44,19.91 76.79,55.47 76.79,55.55
		  86.14,53.47 141.21,59.63 142.12,48.16
		 131.57,37.75 119.52,15.01 108.71,17.54
		 108.71,17.54 83.44,19.91 83.44,19.91 Z
		M 84.27,65.47
		C 78.94,65.88 80.06,72.75 84.18,72.77
		 88.68,72.81 89.59,66.01 84.27,65.47 Z" />
	<circle style="fill: red;" r="16" cx="142" cy="87"></circle>
	<circle style="fill: red;" r="16" cx="55" cy="87"></circle>
</svg>
