<?xml version="1.0" encoding="UTF-8" standalone="no"?>
<!DOCTYPE svg PUBLIC "-//W3C//DTD SVG 20010904//EN"
			"http://www.w3.org/TR/2001/REC-SVG-20010904/DTD/svg10.dtd">

<svg xmlns="http://www.w3.org/2000/svg" viewBox="0 0 200 117" preserveAspectRatio="none">
	<path fill="red" stroke="red" stroke-width="1"
      d="M 51.9,13.9
          C 51.9,13.9 108.4,9.2 108.4,9.2
           134.4,7.2 136.9,39.1 170.7,47.6
           174.4,48.7 182.6,53.1 187.6,55.6
           199.7,59.5 199.4,88.5 177.3,93.9
           179.2,78.3 165.9,65.1 151.4,65.9
           135.5,64.9 123.1,81.3 126.1,96.7
           126.1,96.7 75.9,96.6 75.9,96.6
            78.5,81.8 68.1,65.5 50.3,65.8
            34.5,64.9 23.1,81.0 24.2,93.2
            11.3,87.9 1.5,67.6 18.0,54.4
            18.8,51.1 7.1,50.6 4.5,46.9
             3.6,44.9 4.7,41.7 7.1,41.3
            13.8,41.3 19.5,43.6 29.0,43.7
            36.4,32.8 43.2,13.3 51.9,13.9 Z
          M 55.4,22.7
          C 55.4,22.8 38.6,48.3 38.6,48.3
            43.7,49.3 60.4,56.4 68.6,55.6
            68.6,55.6 75.1,20.8 75.1,20.8
            75.1,20.8 55.4,22.6 55.4,22.7 Z
          M 82.9,20.0
          C 82.9,20.0 76.2,55.5 76.2,55.6
            85.6,53.5 140.9,59.7 141.8,48.2
           131.2,37.8 119.1,15.1 108.3,17.6
           108.3,17.6 82.9,20.0 82.9,20.0 Z
          M 84.9,74.7
          C 91.6,74.9 92.5,64.3 85.0,64.1
            78.3,64.0 77.3,74.5 84.9,74.7 Z" />
	<circle style="fill: red;" r="21" cx="151" cy="92"></circle>
	<circle style="fill: red;" r="21" cx="50" cy="92"></circle>
</svg>
