<?xml version="1.0" encoding="UTF-8" standalone="no"?>
<!DOCTYPE svg PUBLIC "-//W3C//DTD SVG 20010904//EN"
              "http://www.w3.org/TR/2001/REC-SVG-20010904/DTD/svg10.dtd">

<svg xmlns="http://www.w3.org/2000/svg"
     width="43.3494mm" height="43.3494mm"
     viewBox="0 0 512 512">
  <path id="Car-Icon"
        fill="none" stroke="black" stroke-width="1"
        d="M 36.89,38.09
           C 36.89,38.09 57.17,36.39 57.17,36.39
             66.52,35.70 67.43,47.17 79.59,50.22
             80.91,50.61 83.87,52.21 85.65,53.11
             89.99,54.50 89.87,64.92 81.95,66.88
             82.64,61.27 77.84,56.51 72.62,56.80
             66.93,56.45 62.48,62.36 63.54,67.90
             63.54,67.90 45.52,67.86 45.52,67.86
             46.44,62.52 42.71,56.66 36.30,56.77
             30.62,56.43 26.52,62.24 26.91,66.64
             22.28,64.72 18.78,57.40 24.71,52.68
             25.00,51.48 20.78,51.30 19.85,49.96
             19.52,49.26 19.91,48.10 20.77,47.96
             23.19,47.95 25.23,48.79 28.64,48.81
             31.30,44.91 33.74,37.87 36.89,38.09 Z
           M 38.12,41.25
           C 38.12,41.29 32.10,50.48 32.10,50.48
             33.92,50.85 39.94,53.37 42.87,53.11
             42.87,53.11 45.21,40.59 45.21,40.59
             45.21,40.59 38.12,41.21 38.12,41.25 Z
           M 48.02,40.28
           C 48.02,40.28 45.63,53.07 45.63,53.10
             49.00,52.35 68.87,54.57 69.20,50.44
             65.39,46.70 61.04,38.52 57.14,39.43
             57.14,39.43 48.02,40.28 48.02,40.28 Z
           M 48.32,56.66
           C 46.40,56.81 46.81,59.28 48.29,59.29
             49.92,59.30 50.24,56.86 48.32,56.66 Z" />
</svg>
