<?xml version="1.0" encoding="UTF-8" standalone="no"?>
<!DOCTYPE svg PUBLIC "-//W3C//DTD SVG 20010904//EN"
              "http://www.w3.org/TR/2001/REC-SVG-20010904/DTD/svg10.dtd">

<svg xmlns="http://www.w3.org/2000/svg"
     width="43.3494mm" height="43.3494mm"
     viewBox="0 0 512 512">
  <path id="Car-Icon"
        fill="none" stroke="black" stroke-width="1"
        d="M 36.48,37.77
           C 36.48,37.77 57.05,36.06 57.05,36.06
             66.53,35.36 67.46,46.95 79.79,50.03
             81.13,50.42 84.13,52.05 85.94,52.95
             90.35,54.36 90.22,64.89 82.19,66.87
             82.88,61.20 78.02,56.39 72.72,56.68
             66.94,56.33 62.43,62.30 63.50,67.89
             63.50,67.89 45.22,67.85 45.22,67.85
             46.16,62.47 42.38,56.54 35.87,56.65
             30.11,56.31 25.96,62.18 26.35,66.63
             21.66,64.68 18.10,57.29 24.11,52.52
             24.41,51.30 20.13,51.13 19.19,49.77
             18.85,49.07 19.25,47.89 20.12,47.75
             22.57,47.74 24.64,48.58 28.10,48.61
             30.81,44.67 33.28,37.55 36.48,37.77 Z
           M 37.72,40.97
           C 37.72,41.01 31.61,50.30 31.61,50.30
             33.46,50.67 39.57,53.22 42.54,52.95
             42.54,52.95 44.91,40.31 44.91,40.31
             44.91,40.31 37.72,40.93 37.72,40.97 Z
           M 47.77,39.99
           C 47.77,39.99 45.34,52.91 45.34,52.94
             48.76,52.18 68.92,54.42 69.25,50.26
             65.39,46.47 60.98,38.21 57.02,39.13
             57.02,39.13 47.77,39.99 47.77,39.99 Z
           M 48.50,59.90
           C 50.93,59.97 51.27,56.12 48.51,56.04
             46.10,55.98 45.71,59.81 48.50,59.90 Z" />
</svg>
