<?xml version="1.0" encoding="UTF-8" standalone="no"?>
<!DOCTYPE svg PUBLIC "-//W3C//DTD SVG 20010904//EN"
              "http://www.w3.org/TR/2001/REC-SVG-20010904/DTD/svg10.dtd">

<svg xmlns="http://www.w3.org/2000/svg"
     width="43.3494mm" height="43.3494mm"
     viewBox="0 0 512 512">
  <path id="Car-Logo"
        fill="none" stroke="black" stroke-width="1"
        d="M 51.94,13.88
           C 51.94,13.88 108.37,9.16 108.37,9.16
             134.38,7.23 136.92,39.13 170.73,47.58
             174.41,48.66 182.64,53.13 187.61,55.62
             199.69,59.49 199.35,88.45 177.31,93.89
             179.23,78.30 165.89,65.08 151.36,65.87
             135.50,64.91 123.13,81.32 126.07,96.71
             126.07,96.71 75.93,96.60 75.93,96.60
             78.49,81.78 68.12,65.48 50.28,65.78
             34.48,64.85 23.08,80.98 24.16,93.23
             11.28,87.88 1.53,67.55 18.03,54.42
             18.84,51.09 7.11,50.60 4.51,46.88
             3.60,44.93 4.68,41.70 7.08,41.32
             13.80,41.28 19.48,43.60 28.97,43.69
             36.38,32.84 43.16,13.27 51.94,13.88 Z
           M 55.35,22.67
           C 55.35,22.78 38.59,48.32 38.59,48.32
             43.66,49.34 60.42,56.36 68.58,55.62
             68.58,55.62 75.07,20.84 75.07,20.84
             75.07,20.84 55.35,22.55 55.35,22.67 Z
           M 82.91,19.97
           C 82.91,19.97 76.23,55.50 76.23,55.58
             85.62,53.50 140.91,59.67 141.82,48.20
             131.23,37.80 119.14,15.08 108.28,17.61
             108.28,17.61 82.91,19.97 82.91,19.97 Z
           M 84.91,74.73
           C 91.59,74.91 92.50,64.34 84.95,64.12
             78.34,63.95 77.26,74.49 84.91,74.73 Z" />
</svg>
