<?xml version="1.0" encoding="UTF-8" standalone="no"?>
<!DOCTYPE svg PUBLIC "-//W3C//DTD SVG 20010904//EN"
              "http://www.w3.org/TR/2001/REC-SVG-20010904/DTD/svg10.dtd">

<svg xmlns="http://www.w3.org/2000/svg"
     width="43.3494mm" height="43.3494mm"
     viewBox="0 0 512 512">
  <path id="Car-Orig"
        fill="red" stroke="red" stroke-width="1"
        d="M 147.37,160.53
           C 147.37,160.53 269.04,150.35 269.04,150.35
             325.13,146.17 330.61,215.04 403.52,233.29
             411.44,235.63 429.20,245.28 439.90,250.65
             465.96,259.02 465.22,321.54 417.71,333.29
             421.83,299.63 393.07,271.08 361.74,272.78
             327.55,270.71 300.88,306.15 307.21,339.37
             307.21,339.37 199.10,339.14 199.10,339.14
             204.63,307.14 182.26,271.94 143.79,272.60
             109.73,270.58 85.15,305.42 87.47,331.85
             59.70,320.31 38.68,276.41 74.24,248.07
             76.00,240.87 50.70,239.83 45.10,231.78
             43.13,227.57 45.46,220.59 50.64,219.79
             65.12,219.70 77.37,224.71 97.84,224.89
             113.83,201.48 128.43,159.22 147.37,160.53 Z
           M 154.72,179.51
           C 154.72,179.75 118.58,234.89 118.58,234.89
             129.52,237.11 165.66,252.25 183.24,250.65
             183.24,250.65 197.25,175.57 197.25,175.57
             197.25,175.57 154.72,179.26 154.72,179.51 Z
           M 214.15,173.69
           C 214.15,173.69 199.76,250.40 199.76,250.58
             220.00,246.09 339.22,259.39 341.18,234.65
             318.35,212.17 292.26,163.13 268.86,168.59
             268.86,168.59 214.15,173.69 214.15,173.69 Z
           M 218.45,291.91
           C 232.87,292.30 234.83,269.48 218.55,269.00
             204.30,268.65 201.96,291.39 218.45,291.91 Z" />
</svg>
