<?xml version="1.0" encoding="UTF-8" standalone="no"?>
<!DOCTYPE svg PUBLIC "-//W3C//DTD SVG 20010904//EN"
              "http://www.w3.org/TR/2001/REC-SVG-20010904/DTD/svg10.dtd">

<svg xmlns="http://www.w3.org/2000/svg"
     width="6.66667in" height="6.66667in"
     viewBox="0 0 480 480">
  <path id="Unnamed #1"
        fill="none" stroke="black" stroke-width="1"
        d="M 222.91,243.64
           C 222.91,243.64 222.91,201.27 222.91,201.27
             222.91,157.27 245.45,109.82 297.09,106.73
             336.18,108.55 360.00,138.55 361.45,182.55
             361.45,182.55 361.09,230.00 361.09,230.00
             359.00,234.33 335.00,235.33 328.73,229.82
             328.73,229.82 328.73,195.64 328.73,195.82
             329.27,160.36 315.09,136.55 295.64,140.55
             277.27,143.27 257.64,167.64 256.36,206.18
             256.36,206.18 256.36,241.82 256.36,241.82
             251.50,247.75 223.25,245.62 222.91,243.64 Z" />
</svg>
