<?xml version="1.0" encoding="UTF-8" standalone="no"?>
<!DOCTYPE svg PUBLIC "-//W3C//DTD SVG 20010904//EN"
              "http://www.w3.org/TR/2001/REC-SVG-20010904/DTD/svg10.dtd">

<svg xmlns="http://www.w3.org/2000/svg"
     width="4.44444in" height="4.44444in"
     viewBox="0 0 320 320">
  <path id="Unnamed"
        fill="#d3cfc6" stroke="#d3cfc6" stroke-width="1"
        d="M 140.73,317.27
           C 140.73,317.27 313.82,286.91 313.82,286.91
             313.82,286.91 316.75,156.75 316.75,156.75
             316.75,156.75 287.00,141.50 287.00,141.50
             287.00,141.50 287.25,105.75 287.25,105.75
             287.25,52.75 245.00,23.25 218.25,26.75
             177.25,22.00 140.75,75.50 140.75,121.50
             140.75,121.50 140.50,155.00 140.50,155.00
             140.50,155.00 113.25,158.50 113.25,158.50
             113.25,158.50 112.25,293.25 112.25,293.25
             112.25,293.25 140.73,317.27 140.73,317.27 Z
           M 248.75,143.00
           C 248.75,143.00 177.00,151.00 177.00,151.00
             177.00,151.00 177.25,126.25 177.25,126.25
             176.50,99.75 192.25,63.25 216.25,60.25
             232.00,57.25 250.25,74.50 248.75,122.00
             248.75,122.00 248.75,143.00 248.75,143.00 Z" />
</svg>
