<?xml version="1.0" encoding="UTF-8" standalone="no"?>
<!DOCTYPE svg PUBLIC "-//W3C//DTD SVG 20010904//EN"
							"http://www.w3.org/TR/2001/REC-SVG-20010904/DTD/svg10.dtd">

<svg xmlns="http://www.w3.org/2000/svg"
		width="4.44444in" height="4.44444in"
		viewBox="0 0 320 320">
	<defs>
		<linearGradient id="g0">
			<stop offset="5%" stop-color="#4b3527" />
			<stop offset="95%" stop-color="#815c4c" />
		</linearGradient>
		<linearGradient id="g1">
			<stop offset="5%" stop-color="#8c887d" />
			<stop offset="60%" stop-color="#c4bfbb" />
			<stop offset="95%" stop-color="#aca89d" />
		</linearGradient>
		<linearGradient id="g2">
			<stop offset="5%" stop-color="#5c5954" />
			<stop offset="60%" stop-color="#dfdbda" />
			<stop offset="95%" stop-color="#8c8984" />
		</linearGradient>
	</defs>
	<rect x="3" y="2" width="234" height="232" rx="21" ry="21" style="fill: rgb(247, 244, 180);"></rect>
	<rect x="3" y="2" width="234" height="93" rx="21" ry="21" style="fill: url(#g0);"></rect>
	<rect x="3" y="72" width="234" height="30" style="fill: rgb(247, 244, 180);"></rect>
	<line x1="34" y1="72" x2="34" y2="234" stroke-width="2" stroke="#e96323"></line>
	<line x1="43" y1="72" x2="43" y2="234" stroke-width="2" stroke="#f0a963"></line>
	<line x1="3" y1="100" x2="237" y2="100" stroke-width="2" stroke="#80b49c"></line>
	<line x1="3" y1="128" x2="237" y2="128" stroke-width="2" stroke="#80b49c"></line>
	<line x1="3" y1="156" x2="237" y2="156" stroke-width="2" stroke="#80b49c"></line>
	<line x1="3" y1="184" x2="237" y2="184" stroke-width="2" stroke="#80b49c"></line>
	<line x1="3" y1="212" x2="237" y2="212" stroke-width="2" stroke="#80b49c"></line>
	<text x="37" y="125" style="fill: black; font-size: 49px; font-family: cursive; font-weight: bold;">Secret</text>
	<text x="37" y="179" style="fill: black; font-size: 49px; font-family: cursive; font-weight: bold;">Pad</text>
	<path fill="url(#g1)" stroke="url(#g1)" stroke-width="1"
				d="M 139.1,305.5
					C 139.1,305.5 309.6,274.4 309.6,274.4
						309.6,274.4 309.6,153.4 309.6,153.4
						309.6,153.4 281.1,140.2 281.1,140.2
						281.1,140.2 114.0,158.3 114.0,158.3
						114.0,158.3 114.1,282.5 114.1,282.5
						114.1,282.5 139.1,305.5 139.1,305.5 Z
					M 376.5,137.0" />
	<path fill="url(#g2)" stroke="url(#g2)" stroke-width="1"
				d="M 142.9,163.6
					C 142.9,163.6 142.9,121.3 142.9,121.3
						142.9,77.3 165.5,29.8 217.1,26.7
						256.2,28.6 280.0,58.6 281.5,102.6
						281.5,102.6 281.1,150.0 281.1,150.0
						279.0,154.3 255.0,155.3 248.7,149.8
						248.7,149.8 248.7,115.6 248.7,115.8
						249.3,80.4 235.1,56.6 215.6,60.6
						197.3,63.3 177.6,87.6 176.4,126.2
						176.4,126.2 176.4,161.8 176.4,161.8
						171.5,167.8 143.3,165.6 142.9,163.6 Z" />
	<line x1="140" y1="180" x2="140" y2="300" stroke-width="1" stroke="#646158"></line>
	<line x1="138" y1="175" x2="116" y2="160" stroke-width="1" stroke="#646158"></line>
	<line x1="143" y1="176" x2="305" y2="155" stroke-width="1" stroke="#646158"></line>
</svg>
