<?xml version="1.0" encoding="UTF-8" standalone="no"?>
<!DOCTYPE svg PUBLIC "-//W3C//DTD SVG 20010904//EN"
              "http://www.w3.org/TR/2001/REC-SVG-20010904/DTD/svg10.dtd">

<svg xmlns="http://www.w3.org/2000/svg" viewBox="0 0 108 108" preserveAspectRatio="none">
  <path fill="white" stroke="white" stroke-width="1"
        d="M 56.3,43
           C 55.7,43.7 56.8,45 58,44.2
             58.8,43.2 57.2,42.2 56.3,43 Z
           M 49.8,42.8
           C 49.8,42.8 49.8,49.4 49.8,49.4
             49.8,49.4 51.6,49.4 51.6,49.4
             51.6,49.4 51.6,47.2 51.6,47.2
             56.7,47.4 57.3,42 49.8,42.8 Z
           M 51.6,46
           C 51.6,46 51.6,44 51.6,44
             54.3,44 54.4,46 51.6,46 Z
           M 56.4,45
           C 56.4,45 56.4,49.4 56.4,49.4
             56.4,49.4 58.2,49.4 58.2,49.4
             58.2,49.4 58.2,45 58.2,45
             58.2,45 56.4,45 56.4,45 Z
           M 76,58.8
           C 76,58.8 76,41.4 76,41.4
             76,39.4 71,22.5 70.7,22.2
             70,17.9 38.2,17.5 37.7,22
             37,22.8 32.2,39 32.2,41.4
             32.2,41.4 32.2,58.8 32.2,58.8
             32.2,60.8 39.4,85.7 39.8,85.7
             40.6,90.5 67,90.5 68.8,85.7
             68.9,85.7 76,60.8 76,58.8 Z
           M 65.5,32
           C 65.5,32 60.5,38 60.5,38
             59.5,40.5 58.7,36.8 54.2,37
             49.6,36.6 48.6,40.6 47.3,37.8
             46,36.4 43,33 42.5,31.6
             42.2,24.3 66.3,24 65.5,32 Z
           M 48,33.4
           C 48,33.4 60,33.4 60,33.4
             59,32.4 54.8,30 54,29.6
             53.3,30 48,33.4 48,33.4 Z
           M 45.6,53
           C 45.6,53 40,57.3 40,57.3
             31.8,57.2 32.3,35.4 39.7,34.7
             41,35.3 44,38 45.3,39.2
             48.5,41.4 45,40.3 45,46
             44.8,51.3 48.3,51 45.6,53 Z
           M 68.3,57.6
           C 67,56.7 64,54 62.7,53
             59.3,50.3 63,52.3 63,46.2
             63.4,40.4 59.5,41.4 62.3,39.6
             63.2,38.5 67,35.8 68.4,34.7
             76,35.4 76,57 68.3,57.6 Z
           M 54,39.5
           C 63.5,40.2 61.8,52.8 54,52.5
             46,52.8 44.7,39.7 54,39.5 Z
           M 37.6,46
           C 37.8,46.7 40.8,51.8 41.7,52.4
             41.7,52.4 41.8,40 41.8,40
             41.8,40 37.5,45.3 37.6,46 Z
           M 66.7,40
           C 66.7,40 66.6,52.4 66.6,52.4
             67.7,51.6 70.7,46.4 70.8,46.2
             71,45.3 66.7,40 66.7,40 Z
           M 54.2,55
           C 60,55 58.6,51.5 61,54.8
             62.3,56.2 65,58.8 65.5,60.3
             65.2,68 43,67.8 42.7,60.3
             42.7,60.3 47.3,54.6 47.3,54.6
             49.6,51.8 48,55 54.2,55 Z
           M 48,58.6
           C 49,59.4 53.4,62.3 54,62.4
             54.7,62.3 60,58.8 60,58.8
             60,58.8 48,58.6 48,58.6 Z
           M 54,72
           C 64,72.4 63,86.4 54,86
             44.6,85.8 44.6,72.3 54,72 Z
           M 53.6,74
           C 53.6,74 53.6,80.4 53.6,80.4
             53.6,80.4 54.6,80.4 54.6,80.4
             54.6,80.4 54.6,74 54.6,74
             54.6,74 53.6,74 53.6,74 Z
           M 56.6,74.8
           C 55,76.5 58.2,75.6 57.8,79
             58,80 57,83 54,83
             50.7,83 49.8,79.4 50.2,78.8
             50,76.3 52.7,76 51.4,74.8
             47.5,76.2 48,84 54,84
             58.4,84.4 61.6,77.7 56.6,74.8 Z" />
</svg>
